<svg width="114" height="10" viewBox="0 0 114 10" fill="none" xmlns="http://www.w3.org/2000/svg">
<path d="M3.51542 10L0 0H114L109.982 10H3.51542Z" fill="#38405E"/>
<path d="M28.9988 6.87891C28.9988 6.77474 28.9753 6.67839 28.9284 6.58984C28.8842 6.4987 28.7917 6.41667 28.6511 6.34375C28.5131 6.26823 28.3047 6.20312 28.0261 6.14844C27.7917 6.09896 27.5795 6.04036 27.3894 5.97266C27.2019 5.90495 27.0417 5.82292 26.9089 5.72656C26.7787 5.63021 26.6784 5.51693 26.6081 5.38672C26.5378 5.25651 26.5027 5.10417 26.5027 4.92969C26.5027 4.76302 26.5391 4.60547 26.612 4.45703C26.6876 4.30859 26.793 4.17708 26.9284 4.0625C27.0665 3.94792 27.2318 3.85807 27.4245 3.79297C27.6172 3.72786 27.8321 3.69531 28.0691 3.69531C28.4076 3.69531 28.6967 3.75521 28.9363 3.875C29.1758 3.99479 29.3594 4.15495 29.487 4.35547C29.6146 4.55339 29.6784 4.77344 29.6784 5.01562H28.9558C28.9558 4.89844 28.9206 4.78516 28.8503 4.67578C28.7826 4.5638 28.6823 4.47135 28.5495 4.39844C28.4193 4.32552 28.2592 4.28906 28.0691 4.28906C27.8685 4.28906 27.7058 4.32031 27.5808 4.38281C27.4584 4.44271 27.3685 4.51953 27.3113 4.61328C27.2566 4.70703 27.2292 4.80599 27.2292 4.91016C27.2292 4.98828 27.2422 5.05859 27.2683 5.12109C27.2969 5.18099 27.3464 5.23698 27.4167 5.28906C27.487 5.33854 27.586 5.38542 27.7136 5.42969C27.8412 5.47396 28.004 5.51823 28.2019 5.5625C28.5482 5.64062 28.8334 5.73438 29.0573 5.84375C29.2813 5.95312 29.448 6.08724 29.5573 6.24609C29.6667 6.40495 29.7214 6.59766 29.7214 6.82422C29.7214 7.00911 29.6823 7.17839 29.6042 7.33203C29.5287 7.48568 29.418 7.61849 29.2722 7.73047C29.129 7.83984 28.9571 7.92578 28.7566 7.98828C28.5586 8.04818 28.336 8.07812 28.0886 8.07812C27.7162 8.07812 27.4011 8.01172 27.1433 7.87891C26.8855 7.74609 26.6902 7.57422 26.5573 7.36328C26.4245 7.15234 26.3581 6.92969 26.3581 6.69531H27.0847C27.0951 6.89323 27.1524 7.05078 27.2566 7.16797C27.3607 7.28255 27.4883 7.36458 27.6394 7.41406C27.7904 7.46094 27.9402 7.48438 28.0886 7.48438C28.2865 7.48438 28.4519 7.45833 28.5847 7.40625C28.7201 7.35417 28.823 7.28255 28.8933 7.19141C28.9636 7.10026 28.9988 6.99609 28.9988 6.87891ZM30.9392 5.93359V5.84375C30.9392 5.53906 30.9835 5.25651 31.072 4.99609C31.1606 4.73307 31.2882 4.50521 31.4548 4.3125C31.6215 4.11719 31.8233 3.96615 32.0603 3.85938C32.2973 3.75 32.5629 3.69531 32.8572 3.69531C33.1541 3.69531 33.421 3.75 33.658 3.85938C33.8976 3.96615 34.1007 4.11719 34.2673 4.3125C34.4366 4.50521 34.5655 4.73307 34.6541 4.99609C34.7426 5.25651 34.7869 5.53906 34.7869 5.84375V5.93359C34.7869 6.23828 34.7426 6.52083 34.6541 6.78125C34.5655 7.04167 34.4366 7.26953 34.2673 7.46484C34.1007 7.65755 33.8989 7.80859 33.6619 7.91797C33.4275 8.02474 33.1619 8.07812 32.865 8.07812C32.5681 8.07812 32.3012 8.02474 32.0642 7.91797C31.8272 7.80859 31.6241 7.65755 31.4548 7.46484C31.2882 7.26953 31.1606 7.04167 31.072 6.78125C30.9835 6.52083 30.9392 6.23828 30.9392 5.93359ZM31.6619 5.84375V5.93359C31.6619 6.14453 31.6866 6.34375 31.7361 6.53125C31.7856 6.71615 31.8598 6.88021 31.9588 7.02344C32.0603 7.16667 32.1866 7.27995 32.3377 7.36328C32.4887 7.44401 32.6645 7.48438 32.865 7.48438C33.0629 7.48438 33.2361 7.44401 33.3845 7.36328C33.5356 7.27995 33.6606 7.16667 33.7595 7.02344C33.8585 6.88021 33.9327 6.71615 33.9822 6.53125C34.0343 6.34375 34.0603 6.14453 34.0603 5.93359V5.84375C34.0603 5.63542 34.0343 5.4388 33.9822 5.25391C33.9327 5.06641 33.8572 4.90104 33.7556 4.75781C33.6567 4.61198 33.5317 4.4974 33.3806 4.41406C33.2322 4.33073 33.0577 4.28906 32.8572 4.28906C32.6593 4.28906 32.4848 4.33073 32.3338 4.41406C32.1853 4.4974 32.0603 4.61198 31.9588 4.75781C31.8598 4.90104 31.7856 5.06641 31.7361 5.25391C31.6866 5.4388 31.6619 5.63542 31.6619 5.84375ZM37.2313 8H36.5086V3.32812C36.5086 3.02344 36.5633 2.76693 36.6727 2.55859C36.7846 2.34766 36.9448 2.1888 37.1531 2.08203C37.3615 1.97266 37.6089 1.91797 37.8953 1.91797C37.9786 1.91797 38.062 1.92318 38.1453 1.93359C38.2313 1.94401 38.3146 1.95964 38.3953 1.98047L38.3563 2.57031C38.3016 2.55729 38.2391 2.54818 38.1688 2.54297C38.101 2.53776 38.0333 2.53516 37.9656 2.53516C37.812 2.53516 37.6792 2.56641 37.5672 2.62891C37.4578 2.6888 37.3745 2.77734 37.3172 2.89453C37.2599 3.01172 37.2313 3.15625 37.2313 3.32812V8ZM38.1297 3.77344V4.32812H35.8406V3.77344H38.1297ZM41.1639 3.77344V4.32812H38.8787V3.77344H41.1639ZM39.6522 2.74609H40.3748V6.95312C40.3748 7.09635 40.397 7.20443 40.4412 7.27734C40.4855 7.35026 40.5428 7.39844 40.6131 7.42188C40.6834 7.44531 40.759 7.45703 40.8397 7.45703C40.8996 7.45703 40.9621 7.45182 41.0272 7.44141C41.0949 7.42839 41.1457 7.41797 41.1795 7.41016L41.1834 8C41.1261 8.01823 41.0506 8.03516 40.9569 8.05078C40.8657 8.06901 40.7551 8.07812 40.6248 8.07812C40.4478 8.07812 40.285 8.04297 40.1366 7.97266C39.9881 7.90234 39.8696 7.78516 39.7811 7.62109C39.6952 7.45443 39.6522 7.23047 39.6522 6.94922V2.74609ZM43.5419 7.25L44.6278 3.77344H45.1044L45.0106 4.46484L43.9052 8H43.4403L43.5419 7.25ZM42.8114 3.77344L43.7372 7.28906L43.8036 8H43.3153L42.0888 3.77344H42.8114ZM46.1434 7.26172L47.0263 3.77344H47.745L46.5184 8H46.0341L46.1434 7.26172ZM45.2098 3.77344L46.2723 7.19141L46.3934 8H45.9325L44.7958 4.45703L44.702 3.77344H45.2098ZM51.4394 7.27734V5.10156C51.4394 4.9349 51.4055 4.79036 51.3378 4.66797C51.2727 4.54297 51.1738 4.44661 51.0409 4.37891C50.9081 4.3112 50.7441 4.27734 50.5488 4.27734C50.3665 4.27734 50.2063 4.30859 50.0683 4.37109C49.9329 4.43359 49.8261 4.51562 49.748 4.61719C49.6724 4.71875 49.6347 4.82812 49.6347 4.94531H48.912C48.912 4.79427 48.9511 4.64453 49.0292 4.49609C49.1073 4.34766 49.2193 4.21354 49.3652 4.09375C49.5136 3.97135 49.6907 3.875 49.8964 3.80469C50.1047 3.73177 50.3365 3.69531 50.5917 3.69531C50.899 3.69531 51.1698 3.7474 51.4042 3.85156C51.6412 3.95573 51.8261 4.11328 51.9589 4.32422C52.0943 4.53255 52.162 4.79427 52.162 5.10938V7.07812C52.162 7.21875 52.1738 7.36849 52.1972 7.52734C52.2232 7.6862 52.261 7.82292 52.3105 7.9375V8H51.5566C51.5201 7.91667 51.4915 7.80599 51.4706 7.66797C51.4498 7.52734 51.4394 7.39714 51.4394 7.27734ZM51.5644 5.4375L51.5722 5.94531H50.8417C50.636 5.94531 50.4524 5.96224 50.2909 5.99609C50.1295 6.02734 49.9941 6.07552 49.8847 6.14062C49.7753 6.20573 49.692 6.28776 49.6347 6.38672C49.5774 6.48307 49.5488 6.59635 49.5488 6.72656C49.5488 6.85938 49.5787 6.98047 49.6386 7.08984C49.6985 7.19922 49.7883 7.28646 49.9081 7.35156C50.0305 7.41406 50.1803 7.44531 50.3573 7.44531C50.5787 7.44531 50.774 7.39844 50.9433 7.30469C51.1126 7.21094 51.2467 7.09635 51.3456 6.96094C51.4472 6.82552 51.5019 6.69401 51.5097 6.56641L51.8183 6.91406C51.8001 7.02344 51.7506 7.14453 51.6698 7.27734C51.5891 7.41016 51.481 7.53776 51.3456 7.66016C51.2128 7.77995 51.054 7.88021 50.8691 7.96094C50.6868 8.03906 50.481 8.07812 50.2519 8.07812C49.9654 8.07812 49.7141 8.02214 49.498 7.91016C49.2844 7.79818 49.1178 7.64844 48.998 7.46094C48.8808 7.27083 48.8222 7.05859 48.8222 6.82422C48.8222 6.59766 48.8665 6.39844 48.955 6.22656C49.0435 6.05208 49.1711 5.90755 49.3378 5.79297C49.5045 5.67578 49.705 5.58724 49.9394 5.52734C50.1738 5.46745 50.4355 5.4375 50.7245 5.4375H51.5644ZM54.4814 4.4375V8H53.7588V3.77344H54.4619L54.4814 4.4375ZM55.8017 3.75L55.7978 4.42188C55.7379 4.40885 55.6806 4.40104 55.6259 4.39844C55.5739 4.39323 55.514 4.39062 55.4463 4.39062C55.2796 4.39062 55.1324 4.41667 55.0048 4.46875C54.8772 4.52083 54.7692 4.59375 54.6806 4.6875C54.5921 4.78125 54.5218 4.89323 54.4697 5.02344C54.4202 5.15104 54.3877 5.29167 54.372 5.44531L54.1689 5.5625C54.1689 5.30729 54.1936 5.06771 54.2431 4.84375C54.2952 4.61979 54.3746 4.42188 54.4814 4.25C54.5882 4.07552 54.7236 3.9401 54.8877 3.84375C55.0543 3.74479 55.2522 3.69531 55.4814 3.69531C55.5335 3.69531 55.5934 3.70182 55.6611 3.71484C55.7288 3.72526 55.7757 3.73698 55.8017 3.75ZM58.6055 8.07812C58.3112 8.07812 58.0443 8.02865 57.8047 7.92969C57.5677 7.82812 57.3633 7.6862 57.1914 7.50391C57.0221 7.32161 56.8919 7.10547 56.8008 6.85547C56.7096 6.60547 56.6641 6.33203 56.6641 6.03516V5.87109C56.6641 5.52734 56.7148 5.22135 56.8164 4.95312C56.918 4.68229 57.056 4.45312 57.2305 4.26562C57.4049 4.07812 57.6029 3.9362 57.8242 3.83984C58.0456 3.74349 58.2747 3.69531 58.5117 3.69531C58.8138 3.69531 59.0742 3.7474 59.293 3.85156C59.5143 3.95573 59.6953 4.10156 59.8359 4.28906C59.9766 4.47396 60.0807 4.69271 60.1484 4.94531C60.2161 5.19531 60.25 5.46875 60.25 5.76562V6.08984H57.0938V5.5H59.5273V5.44531C59.5169 5.25781 59.4779 5.07552 59.4102 4.89844C59.3451 4.72135 59.2409 4.57552 59.0977 4.46094C58.9544 4.34635 58.7591 4.28906 58.5117 4.28906C58.3477 4.28906 58.1966 4.32422 58.0586 4.39453C57.9206 4.46224 57.8021 4.5638 57.7031 4.69922C57.6042 4.83464 57.5273 5 57.4727 5.19531C57.418 5.39062 57.3906 5.61589 57.3906 5.87109V6.03516C57.3906 6.23568 57.418 6.42448 57.4727 6.60156C57.5299 6.77604 57.612 6.92969 57.7188 7.0625C57.8281 7.19531 57.9596 7.29948 58.1133 7.375C58.2695 7.45052 58.4466 7.48828 58.6445 7.48828C58.8997 7.48828 59.1159 7.4362 59.293 7.33203C59.4701 7.22786 59.625 7.08854 59.7578 6.91406L60.1953 7.26172C60.1042 7.39974 59.9883 7.53125 59.8477 7.65625C59.707 7.78125 59.5339 7.88281 59.3281 7.96094C59.125 8.03906 58.8841 8.07812 58.6055 8.07812ZM66.4591 6.87891C66.4591 6.77474 66.4356 6.67839 66.3887 6.58984C66.3445 6.4987 66.252 6.41667 66.1114 6.34375C65.9734 6.26823 65.7651 6.20312 65.4864 6.14844C65.252 6.09896 65.0398 6.04036 64.8497 5.97266C64.6622 5.90495 64.502 5.82292 64.3692 5.72656C64.239 5.63021 64.1387 5.51693 64.0684 5.38672C63.9981 5.25651 63.963 5.10417 63.963 4.92969C63.963 4.76302 63.9994 4.60547 64.0723 4.45703C64.1479 4.30859 64.2533 4.17708 64.3887 4.0625C64.5268 3.94792 64.6921 3.85807 64.8848 3.79297C65.0776 3.72786 65.2924 3.69531 65.5294 3.69531C65.8679 3.69531 66.157 3.75521 66.3966 3.875C66.6361 3.99479 66.8197 4.15495 66.9473 4.35547C67.0749 4.55339 67.1387 4.77344 67.1387 5.01562H66.4161C66.4161 4.89844 66.3809 4.78516 66.3106 4.67578C66.2429 4.5638 66.1427 4.47135 66.0098 4.39844C65.8796 4.32552 65.7195 4.28906 65.5294 4.28906C65.3289 4.28906 65.1661 4.32031 65.0411 4.38281C64.9187 4.44271 64.8289 4.51953 64.7716 4.61328C64.7169 4.70703 64.6895 4.80599 64.6895 4.91016C64.6895 4.98828 64.7026 5.05859 64.7286 5.12109C64.7572 5.18099 64.8067 5.23698 64.877 5.28906C64.9473 5.33854 65.0463 5.38542 65.1739 5.42969C65.3015 5.47396 65.4643 5.51823 65.6622 5.5625C66.0085 5.64062 66.2937 5.73438 66.5177 5.84375C66.7416 5.95312 66.9083 6.08724 67.0177 6.24609C67.127 6.40495 67.1817 6.59766 67.1817 6.82422C67.1817 7.00911 67.1427 7.17839 67.0645 7.33203C66.989 7.48568 66.8783 7.61849 66.7325 7.73047C66.5893 7.83984 66.4174 7.92578 66.2169 7.98828C66.019 8.04818 65.7963 8.07812 65.5489 8.07812C65.1765 8.07812 64.8614 8.01172 64.6036 7.87891C64.3458 7.74609 64.1505 7.57422 64.0177 7.36328C63.8848 7.15234 63.8184 6.92969 63.8184 6.69531H64.545C64.5554 6.89323 64.6127 7.05078 64.7169 7.16797C64.821 7.28255 64.9486 7.36458 65.0997 7.41406C65.2507 7.46094 65.4005 7.48438 65.5489 7.48438C65.7468 7.48438 65.9122 7.45833 66.045 7.40625C66.1804 7.35417 66.2833 7.28255 66.3536 7.19141C66.4239 7.10026 66.4591 6.99609 66.4591 6.87891ZM70.3605 3.77344V4.32812H68.0753V3.77344H70.3605ZM68.8487 2.74609H69.5714V6.95312C69.5714 7.09635 69.5935 7.20443 69.6378 7.27734C69.6821 7.35026 69.7394 7.39844 69.8097 7.42188C69.88 7.44531 69.9555 7.45703 70.0362 7.45703C70.0961 7.45703 70.1586 7.45182 70.2237 7.44141C70.2915 7.42839 70.3422 7.41797 70.3761 7.41016L70.38 8C70.3227 8.01823 70.2472 8.03516 70.1534 8.05078C70.0623 8.06901 69.9516 8.07812 69.8214 8.07812C69.6443 8.07812 69.4816 8.04297 69.3331 7.97266C69.1847 7.90234 69.0662 7.78516 68.9777 7.62109C68.8917 7.45443 68.8487 7.23047 68.8487 6.94922V2.74609ZM74.1603 7.27734V5.10156C74.1603 4.9349 74.1265 4.79036 74.0588 4.66797C73.9936 4.54297 73.8947 4.44661 73.7619 4.37891C73.6291 4.3112 73.465 4.27734 73.2697 4.27734C73.0874 4.27734 72.9272 4.30859 72.7892 4.37109C72.6538 4.43359 72.547 4.51562 72.4689 4.61719C72.3934 4.71875 72.3556 4.82812 72.3556 4.94531H71.633C71.633 4.79427 71.672 4.64453 71.7502 4.49609C71.8283 4.34766 71.9403 4.21354 72.0861 4.09375C72.2345 3.97135 72.4116 3.875 72.6173 3.80469C72.8257 3.73177 73.0575 3.69531 73.3127 3.69531C73.62 3.69531 73.8908 3.7474 74.1252 3.85156C74.3621 3.95573 74.547 4.11328 74.6798 4.32422C74.8153 4.53255 74.883 4.79427 74.883 5.10938V7.07812C74.883 7.21875 74.8947 7.36849 74.9181 7.52734C74.9442 7.6862 74.9819 7.82292 75.0314 7.9375V8H74.2775C74.241 7.91667 74.2124 7.80599 74.1916 7.66797C74.1707 7.52734 74.1603 7.39714 74.1603 7.27734ZM74.2853 5.4375L74.2931 5.94531H73.5627C73.3569 5.94531 73.1733 5.96224 73.0119 5.99609C72.8504 6.02734 72.715 6.07552 72.6056 6.14062C72.4963 6.20573 72.4129 6.28776 72.3556 6.38672C72.2983 6.48307 72.2697 6.59635 72.2697 6.72656C72.2697 6.85938 72.2996 6.98047 72.3595 7.08984C72.4194 7.19922 72.5093 7.28646 72.6291 7.35156C72.7515 7.41406 72.9012 7.44531 73.0783 7.44531C73.2996 7.44531 73.495 7.39844 73.6642 7.30469C73.8335 7.21094 73.9676 7.09635 74.0666 6.96094C74.1681 6.82552 74.2228 6.69401 74.2306 6.56641L74.5392 6.91406C74.521 7.02344 74.4715 7.14453 74.3908 7.27734C74.3101 7.41016 74.202 7.53776 74.0666 7.66016C73.9338 7.77995 73.7749 7.88021 73.59 7.96094C73.4077 8.03906 73.202 8.07812 72.9728 8.07812C72.6864 8.07812 72.4351 8.02214 72.2189 7.91016C72.0054 7.79818 71.8387 7.64844 71.7189 7.46094C71.6017 7.27083 71.5431 7.05859 71.5431 6.82422C71.5431 6.59766 71.5874 6.39844 71.6759 6.22656C71.7645 6.05208 71.8921 5.90755 72.0588 5.79297C72.2254 5.67578 72.4259 5.58724 72.6603 5.52734C72.8947 5.46745 73.1564 5.4375 73.4455 5.4375H74.2853ZM78.2492 3.77344V4.32812H75.9641V3.77344H78.2492ZM76.7375 2.74609H77.4602V6.95312C77.4602 7.09635 77.4823 7.20443 77.5266 7.27734C77.5708 7.35026 77.6281 7.39844 77.6984 7.42188C77.7688 7.44531 77.8443 7.45703 77.925 7.45703C77.9849 7.45703 78.0474 7.45182 78.1125 7.44141C78.1802 7.42839 78.231 7.41797 78.2648 7.41016L78.2688 8C78.2115 8.01823 78.1359 8.03516 78.0422 8.05078C77.951 8.06901 77.8404 8.07812 77.7102 8.07812C77.5331 8.07812 77.3703 8.04297 77.2219 7.97266C77.0734 7.90234 76.955 7.78516 76.8664 7.62109C76.7805 7.45443 76.7375 7.23047 76.7375 6.94922V2.74609ZM82.1428 7.02344V3.77344H82.8694V8H82.178L82.1428 7.02344ZM82.2795 6.13281L82.5803 6.125C82.5803 6.40625 82.5504 6.66667 82.4905 6.90625C82.4332 7.14323 82.3394 7.34896 82.2092 7.52344C82.079 7.69792 81.9084 7.83464 81.6975 7.93359C81.4866 8.02995 81.2301 8.07812 80.928 8.07812C80.7222 8.07812 80.5334 8.04818 80.3616 7.98828C80.1923 7.92839 80.0465 7.83594 79.9241 7.71094C79.8017 7.58594 79.7066 7.42318 79.6389 7.22266C79.5738 7.02214 79.5413 6.78125 79.5413 6.5V3.77344H80.2639V6.50781C80.2639 6.69792 80.2847 6.85547 80.3264 6.98047C80.3707 7.10286 80.4293 7.20052 80.5022 7.27344C80.5777 7.34375 80.661 7.39323 80.7522 7.42188C80.8459 7.45052 80.9423 7.46484 81.0413 7.46484C81.3485 7.46484 81.592 7.40625 81.7717 7.28906C81.9514 7.16927 82.0803 7.00911 82.1584 6.80859C82.2392 6.60547 82.2795 6.38021 82.2795 6.13281ZM86.8919 6.87891C86.8919 6.77474 86.8684 6.67839 86.8216 6.58984C86.7773 6.4987 86.6848 6.41667 86.5442 6.34375C86.4062 6.26823 86.1979 6.20312 85.9192 6.14844C85.6848 6.09896 85.4726 6.04036 85.2825 5.97266C85.095 5.90495 84.9348 5.82292 84.802 5.72656C84.6718 5.63021 84.5716 5.51693 84.5013 5.38672C84.4309 5.25651 84.3958 5.10417 84.3958 4.92969C84.3958 4.76302 84.4322 4.60547 84.5052 4.45703C84.5807 4.30859 84.6861 4.17708 84.8216 4.0625C84.9596 3.94792 85.1249 3.85807 85.3177 3.79297C85.5104 3.72786 85.7252 3.69531 85.9622 3.69531C86.3007 3.69531 86.5898 3.75521 86.8294 3.875C87.069 3.99479 87.2526 4.15495 87.3802 4.35547C87.5078 4.55339 87.5716 4.77344 87.5716 5.01562H86.8489C86.8489 4.89844 86.8138 4.78516 86.7434 4.67578C86.6757 4.5638 86.5755 4.47135 86.4427 4.39844C86.3124 4.32552 86.1523 4.28906 85.9622 4.28906C85.7617 4.28906 85.5989 4.32031 85.4739 4.38281C85.3515 4.44271 85.2617 4.51953 85.2044 4.61328C85.1497 4.70703 85.1223 4.80599 85.1223 4.91016C85.1223 4.98828 85.1354 5.05859 85.1614 5.12109C85.1901 5.18099 85.2395 5.23698 85.3098 5.28906C85.3802 5.33854 85.4791 5.38542 85.6067 5.42969C85.7343 5.47396 85.8971 5.51823 86.095 5.5625C86.4414 5.64062 86.7265 5.73438 86.9505 5.84375C87.1744 5.95312 87.3411 6.08724 87.4505 6.24609C87.5598 6.40495 87.6145 6.59766 87.6145 6.82422C87.6145 7.00911 87.5755 7.17839 87.4973 7.33203C87.4218 7.48568 87.3111 7.61849 87.1653 7.73047C87.0221 7.83984 86.8502 7.92578 86.6497 7.98828C86.4518 8.04818 86.2291 8.07812 85.9817 8.07812C85.6093 8.07812 85.2942 8.01172 85.0364 7.87891C84.7786 7.74609 84.5833 7.57422 84.4505 7.36328C84.3177 7.15234 84.2513 6.92969 84.2513 6.69531H84.9778C84.9882 6.89323 85.0455 7.05078 85.1497 7.16797C85.2539 7.28255 85.3815 7.36458 85.5325 7.41406C85.6835 7.46094 85.8333 7.48438 85.9817 7.48438C86.1796 7.48438 86.345 7.45833 86.4778 7.40625C86.6132 7.35417 86.7161 7.28255 86.7864 7.19141C86.8567 7.10026 86.8919 6.99609 86.8919 6.87891Z" fill="#BEBEBE"/>
</svg>
